<svg width="164" height="50" viewBox="0 0 164 50" fill="none" xmlns="http://www.w3.org/2000/svg">
<path d="M36.288 7.16C37.08 8.36 37.608 10.064 37.872 12.272C38.16 14.456 38.172 16.952 37.908 19.76C37.644 22.448 37.164 25.052 36.468 27.572C35.796 30.092 34.98 32.252 34.02 34.052C32.196 37.388 30.144 39.056 27.864 39.056C26.664 39.056 25.644 38.48 24.804 37.328C24.156 36.44 23.592 35.192 23.112 33.584C22.56 31.664 22.008 28.448 21.456 23.936C21.168 21.824 20.952 20.372 20.808 19.58C20.712 18.956 20.604 18.464 20.484 18.104C20.364 18.248 20.256 18.44 20.16 18.68C19.752 19.448 19.044 21.596 18.036 25.124C16.428 30.788 15.06 34.832 13.932 37.256C12.996 39.272 12.024 40.796 11.016 41.828C9.888 43.004 8.688 43.592 7.416 43.592C7.224 43.592 7.032 43.58 6.84 43.556C5.568 43.364 4.512 42.536 3.672 41.072C2.712 39.464 2.028 37.052 1.62 33.836C1.26 31.028 1.116 27.836 1.188 24.26C1.284 20.924 1.548 17.744 1.98 14.72C2.436 11.696 2.976 9.392 3.6 7.808C3.696 7.568 3.864 7.4 4.104 7.304C4.344 7.184 4.584 7.172 4.824 7.268C5.088 7.364 5.268 7.532 5.364 7.772C5.46 8.012 5.46 8.264 5.364 8.528C4.764 10.016 4.26 12.212 3.852 15.116C3.444 18.02 3.192 21.092 3.096 24.332C3.024 28.004 3.18 31.208 3.564 33.944C3.948 36.704 4.536 38.768 5.328 40.136C5.856 41.048 6.444 41.552 7.092 41.648C8.796 41.888 10.5 40.16 12.204 36.464C13.284 34.136 14.628 30.176 16.236 24.584C17.268 20.96 18 18.704 18.432 17.816C19.176 16.328 19.968 15.656 20.808 15.8C21.288 15.896 21.66 16.184 21.924 16.664C22.188 17.144 22.416 17.828 22.608 18.716C22.776 19.604 23.016 21.272 23.328 23.72C23.88 28.112 24.42 31.22 24.948 33.044C25.74 35.804 26.712 37.184 27.864 37.184C29.4 37.184 30.888 35.84 32.328 33.152C33.576 30.8 34.548 27.92 35.244 24.512C35.964 21.104 36.276 17.876 36.18 14.828C36.108 11.78 35.616 9.584 34.704 8.24C34.152 7.4 33.48 7.016 32.688 7.088C32.496 7.112 32.328 7.088 32.184 7.016C32.04 6.944 31.908 6.836 31.788 6.692C31.692 6.548 31.644 6.392 31.644 6.224C31.62 5.96 31.692 5.732 31.86 5.54C32.028 5.324 32.244 5.204 32.508 5.18C34.068 5.06 35.328 5.72 36.288 7.16ZM52.128 26.744C52.344 26.624 52.56 26.6 52.776 26.672C52.992 26.72 53.16 26.852 53.28 27.068C53.4 27.26 53.424 27.464 53.352 27.68C53.136 28.544 52.752 29.3 52.2 29.948C51.672 30.596 51.084 31.076 50.436 31.388C49.812 31.7 49.176 31.856 48.528 31.856C48.36 31.856 48.192 31.844 48.024 31.82C46.824 31.628 46.008 30.932 45.576 29.732C45.456 29.852 45.336 29.972 45.216 30.092C43.848 31.484 42.564 32.18 41.364 32.18C41.34 32.18 41.328 32.18 41.328 32.18C40.632 32.18 40.032 31.904 39.528 31.352C39.024 30.776 38.82 30.116 38.916 29.372C39.036 28.388 39.468 27.524 40.212 26.78C40.956 26.036 41.76 25.496 42.624 25.16C43.488 24.824 44.328 24.644 45.144 24.62C45.792 24.62 46.344 24.788 46.8 25.124C47.28 25.436 47.58 25.868 47.7 26.42C47.748 26.66 47.7 26.876 47.556 27.068C47.436 27.26 47.268 27.38 47.052 27.428C47.004 27.428 46.956 27.428 46.908 27.428C46.932 27.524 46.944 27.632 46.944 27.752C46.872 29.216 47.316 30.032 48.276 30.2C48.9 30.296 49.56 30.092 50.256 29.588C51 29.012 51.504 28.232 51.768 27.248C51.816 27.032 51.936 26.864 52.128 26.744ZM45.432 27.248C45.6 27.008 45.828 26.888 46.116 26.888C46.092 26.84 46.08 26.804 46.08 26.78C46.008 26.444 45.732 26.276 45.252 26.276C45.228 26.276 45.204 26.276 45.18 26.276C44.196 26.3 43.212 26.624 42.228 27.248C41.244 27.848 40.68 28.628 40.536 29.588C40.512 29.828 40.584 30.044 40.752 30.236C40.944 30.452 41.136 30.548 41.328 30.524C42 30.524 42.732 30.152 43.524 29.408C44.34 28.64 44.976 27.92 45.432 27.248ZM68.6121 26.708C68.8281 26.78 68.9721 26.924 69.0441 27.14C69.1401 27.356 69.1521 27.572 69.0801 27.788C69.0081 28.004 68.8641 28.148 68.6481 28.22C68.5041 28.292 68.2881 28.388 68.0001 28.508C65.3601 29.66 63.3921 30.716 62.0961 31.676C62.0961 33.212 62.0121 34.808 61.8441 36.464C61.7241 37.592 61.5561 38.72 61.3401 39.848C61.1481 40.976 60.7761 42.332 60.2241 43.916C59.6961 45.524 59.0721 46.784 58.3521 47.696C57.3681 48.944 56.2521 49.568 55.0041 49.568C54.6441 49.568 54.2721 49.508 53.8881 49.388C52.7601 49.052 51.9921 48.248 51.5841 46.976C51.1761 45.704 51.2121 44.192 51.6921 42.44C52.2201 40.616 53.1561 38.828 54.5001 37.076C56.5641 34.412 58.5321 32.336 60.4041 30.848C60.3321 29.12 60.1401 27.968 59.8281 27.392C59.7801 27.344 59.7441 27.296 59.7201 27.248C59.5761 27.32 59.3601 27.476 59.0721 27.716C58.8081 27.98 58.3881 28.46 57.8121 29.156C57.2601 29.804 56.8281 30.296 56.5161 30.632C56.2041 30.968 55.7841 31.304 55.2561 31.64C54.7521 31.976 54.2721 32.144 53.8161 32.144C52.9761 32.168 52.3521 31.868 51.9441 31.244C51.5841 30.668 51.5001 29.864 51.6921 28.832C51.8361 28.016 52.1361 27.152 52.5921 26.24C52.6881 26.048 52.8441 25.916 53.0601 25.844C53.2761 25.772 53.4801 25.784 53.6721 25.88C53.8881 25.976 54.0321 26.132 54.1041 26.348C54.1761 26.564 54.1641 26.78 54.0681 26.996C53.6841 27.764 53.4321 28.484 53.3121 29.156C53.1921 29.804 53.2041 30.212 53.3481 30.38C53.4201 30.476 53.5641 30.524 53.7801 30.524C54.2601 30.5 55.1841 29.684 56.5521 28.076C57.0561 27.476 57.4401 27.032 57.7041 26.744C57.9921 26.456 58.3401 26.192 58.7481 25.952C59.1561 25.688 59.5401 25.568 59.9001 25.592C60.4521 25.64 60.9081 25.976 61.2681 26.6C61.6281 27.224 61.8681 28.268 61.9881 29.732C63.1641 28.94 64.9521 28.028 67.3521 26.996C67.6641 26.876 67.8681 26.78 67.9641 26.708C68.1801 26.636 68.3961 26.636 68.6121 26.708ZM60.1881 36.32C60.3321 35.168 60.4161 34.064 60.4401 33.008C58.9761 34.28 57.4401 35.972 55.8321 38.084C54.7761 39.428 53.9721 40.88 53.4201 42.44C52.8681 44 52.7721 45.344 53.1321 46.472C53.3721 47.192 53.7921 47.636 54.3921 47.804C55.3521 48.092 56.2401 47.72 57.0561 46.688C57.8001 45.752 58.4481 44.36 59.0001 42.512C59.5521 40.688 59.9481 38.624 60.1881 36.32ZM79.7172 27.32C79.7172 27.416 79.7052 27.524 79.6812 27.644C79.6572 27.74 79.6092 27.836 79.5372 27.932C79.4892 28.004 79.4172 28.076 79.3212 28.148C79.2252 28.196 79.1292 28.232 79.0332 28.256C77.5692 28.472 75.7452 29.012 73.5612 29.876C73.7052 30.116 73.8132 30.38 73.8852 30.668C74.0772 31.604 73.5132 32.492 72.1932 33.332C71.3052 33.884 70.2972 34.304 69.1692 34.592C68.6172 34.712 68.1252 34.772 67.6932 34.772C67.1172 34.772 66.6732 34.652 66.3612 34.412C65.8812 34.052 65.7252 33.56 65.8932 32.936C66.0852 32.288 66.7332 31.592 67.8372 30.848C68.4372 30.464 69.1812 30.056 70.0692 29.624C69.3492 29.36 68.8212 29.108 68.4852 28.868C67.7652 28.34 67.5012 27.656 67.6932 26.816C67.8612 26 68.6412 25.148 70.0332 24.26C70.2252 24.14 70.4292 24.104 70.6452 24.152C70.8852 24.2 71.0652 24.32 71.1852 24.512C71.3052 24.704 71.3412 24.908 71.2932 25.124C71.2452 25.34 71.1252 25.52 70.9332 25.664C69.9252 26.288 69.3852 26.78 69.3132 27.14C69.2892 27.236 69.2892 27.32 69.3132 27.392C69.3372 27.44 69.4692 27.536 69.7092 27.68C69.9492 27.8 70.3212 27.956 70.8252 28.148C71.4252 28.34 71.8692 28.508 72.1572 28.652C74.7252 27.596 76.9212 26.924 78.7452 26.636C78.9852 26.588 79.1892 26.636 79.3572 26.78C79.5492 26.9 79.6692 27.08 79.7172 27.32ZM71.6892 31.64C72.0972 31.328 72.2892 31.112 72.2652 30.992C72.2412 30.824 72.1452 30.668 71.9772 30.524C71.9532 30.548 71.9292 30.56 71.9052 30.56C70.7052 31.112 69.7572 31.604 69.0612 32.036C68.3892 32.468 67.9212 32.828 67.6572 33.116C68.1612 33.116 68.8212 32.984 69.6372 32.72C70.4532 32.456 71.1372 32.096 71.6892 31.64Z" fill="#613D2B"/>
<path d="M107.444 26.636C107.708 26.588 107.948 26.636 108.164 26.78C108.38 26.924 108.512 27.128 108.56 27.392C108.608 27.632 108.56 27.86 108.416 28.076C106.784 30.5 104.54 32.384 101.684 33.728C100.316 36.968 97.592 39.536 93.512 41.432C89.84 43.16 85.844 44.024 81.524 44.024C80.42 44.024 79.34 43.952 78.284 43.808C77.348 43.712 76.508 43.508 75.764 43.196C75.02 42.884 74.396 42.488 73.892 42.008C73.388 41.528 73.016 40.988 72.776 40.388C72.536 39.716 72.476 39.032 72.596 38.336C72.716 37.664 73.016 37.076 73.496 36.572C74.216 35.756 75.548 35.228 77.492 34.988C77.132 30.092 77.24 25.112 77.816 20.048C78.392 14.96 79.376 10.496 80.768 6.656C80.864 6.416 81.032 6.248 81.272 6.152C81.512 6.032 81.752 6.02 81.992 6.116C82.232 6.188 82.412 6.344 82.532 6.584C82.652 6.824 82.664 7.064 82.568 7.304C81.008 11.624 79.976 16.7 79.472 22.532C79.784 21.38 80.132 20.24 80.516 19.112C80.9 17.984 81.308 16.904 81.74 15.872C82.172 14.84 82.616 13.856 83.072 12.92C83.552 11.96 84.044 11.06 84.548 10.22C85.076 9.38 85.616 8.624 86.168 7.952C88.424 5.048 90.74 3.464 93.116 3.2C95.132 2.984 96.656 3.416 97.688 4.496C98.864 5.72 99.26 7.64 98.876 10.256C98.636 11.768 98.036 13.364 97.076 15.044C96.116 16.724 94.88 18.344 93.368 19.904C92.528 20.792 91.664 21.572 90.776 22.244C95.336 22.268 98.648 23.336 100.712 25.448C102.2 27.008 102.776 28.928 102.44 31.208C104.24 30.104 105.704 28.712 106.832 27.032C107 26.816 107.204 26.684 107.444 26.636ZM92.684 39.704C95.444 38.432 97.52 36.812 98.912 34.844C97.376 35.324 95.612 35.696 93.62 35.96C91.628 36.248 90.008 36.416 88.76 36.464C87.512 36.512 85.82 36.56 83.684 36.608C81.812 36.632 80.456 36.668 79.616 36.716C79.664 37.652 79.748 38.54 79.868 39.38C79.916 39.644 79.856 39.872 79.688 40.064C79.544 40.28 79.34 40.412 79.076 40.46C78.908 40.484 78.74 40.46 78.572 40.388C78.428 40.34 78.296 40.244 78.176 40.1C78.08 39.98 78.02 39.836 77.996 39.668C77.852 38.756 77.732 37.832 77.636 36.896C76.22 37.088 75.296 37.412 74.864 37.868C74.408 38.372 74.312 38.984 74.576 39.704C75.032 40.928 76.34 41.672 78.5 41.936C80.9 42.2 83.336 42.14 85.808 41.756C88.28 41.372 90.572 40.688 92.684 39.704ZM100.496 31.136C100.832 29.384 100.436 27.932 99.308 26.78C98.228 25.676 96.584 24.92 94.376 24.512C92.192 24.08 89.672 24.044 86.816 24.404C86.504 24.476 86.204 24.512 85.916 24.512C85.748 24.512 85.592 24.476 85.448 24.404C85.328 24.332 85.22 24.236 85.124 24.116C85.028 23.972 84.98 23.816 84.98 23.648C84.956 23.384 85.016 23.156 85.16 22.964C85.328 22.772 85.532 22.664 85.772 22.64C86.012 22.592 86.24 22.556 86.456 22.532C86.888 22.412 87.38 22.196 87.932 21.884C88.508 21.548 89.156 21.092 89.876 20.516C90.596 19.94 91.304 19.292 92 18.572C92.696 17.876 93.32 17.156 93.872 16.412C94.448 15.668 94.94 14.936 95.348 14.216C95.78 13.472 96.128 12.74 96.392 12.02C96.68 11.3 96.872 10.616 96.968 9.968C97.28 7.976 97.064 6.596 96.32 5.828C95.84 5.324 95.096 5.072 94.088 5.072C93.848 5.072 93.596 5.084 93.332 5.108C91.484 5.3 89.588 6.632 87.644 9.104C86.804 10.208 85.976 11.504 85.16 12.992C84.368 14.48 83.636 16.1 82.964 17.852C82.316 19.604 81.74 21.428 81.236 23.324C80.18 27.38 79.628 31.208 79.58 34.808C80.396 34.76 81.764 34.724 83.684 34.7C85.508 34.676 86.936 34.64 87.968 34.592C89.024 34.544 90.368 34.436 92 34.268C93.656 34.1 95.144 33.86 96.464 33.548C97.808 33.212 99.056 32.804 100.208 32.324C100.328 31.94 100.424 31.544 100.496 31.136ZM116.762 26.492C117.002 26.468 117.206 26.54 117.374 26.708C117.542 26.852 117.626 27.044 117.626 27.284C117.65 27.5 117.578 27.692 117.41 27.86C114.938 30.596 112.514 32 110.138 32.072C110.066 32.072 109.994 32.072 109.922 32.072C108.554 32.072 107.486 31.64 106.718 30.776C105.974 29.936 105.71 28.88 105.926 27.608C106.07 26.72 106.43 25.868 107.006 25.052C107.702 24.044 108.47 23.54 109.31 23.54C110.078 23.54 110.63 23.876 110.966 24.548C111.182 25.004 111.242 25.472 111.146 25.952C111.074 26.432 110.906 26.852 110.642 27.212C109.97 28.148 108.938 28.688 107.546 28.832C107.618 29.168 107.75 29.456 107.942 29.696C108.422 30.224 109.13 30.476 110.066 30.452C111.986 30.38 114.026 29.144 116.186 26.744C116.354 26.576 116.546 26.492 116.762 26.492ZM109.31 25.196C109.094 25.196 108.83 25.388 108.518 25.772C108.206 26.156 107.954 26.612 107.762 27.14C108.482 26.972 108.998 26.672 109.31 26.24C109.43 26.096 109.502 25.928 109.526 25.736C109.55 25.52 109.538 25.364 109.49 25.268C109.466 25.22 109.406 25.196 109.31 25.196Z" fill="#613D2B"/>
<path d="M151.26 26.238C151.501 26.2252 151.702 26.3066 151.862 26.4822C152.023 26.6338 152.11 26.8301 152.122 27.0709C152.136 27.2878 152.068 27.4768 151.916 27.638C151.841 27.7065 151.727 27.8214 151.576 27.9825C151.17 28.4442 150.829 28.8007 150.553 29.0522C150.301 29.3047 149.962 29.6133 149.537 29.9779C149.112 30.3186 148.68 30.5748 148.24 30.7465C147.824 30.8954 147.401 30.9598 146.969 30.9397C146.753 30.9297 146.539 30.8957 146.325 30.8377C146.017 30.7513 145.746 30.6306 145.513 30.4756C145.304 30.3217 145.131 30.1695 144.994 30.019C144.882 29.8456 144.771 29.6362 144.663 29.3909C144.578 29.1467 144.514 28.9635 144.472 28.8414C144.431 28.6954 144.392 28.5013 144.355 28.2594C144.256 27.7983 144.151 27.4691 144.04 27.2717C143.953 27.0754 143.78 26.9232 143.521 26.8151C143.167 26.6785 142.706 26.7772 142.138 27.1111C141.594 27.4462 141.145 27.7858 140.793 28.1298C140.465 28.4749 140.047 28.936 139.539 29.513C139.135 29.9507 138.844 30.2615 138.667 30.4455C138.49 30.6295 138.278 30.7998 138.031 30.9565C137.808 31.0903 137.589 31.1522 137.373 31.1422C137.349 31.141 137.337 31.1405 137.337 31.1405C137.026 31.126 136.779 31.0064 136.597 30.7817C135.891 29.956 135.931 28.3121 136.719 25.85C136.801 25.6376 136.94 25.4879 137.136 25.4009C137.333 25.29 137.538 25.2755 137.751 25.3574C137.988 25.4165 138.15 25.5442 138.237 25.7405C138.348 25.9378 138.362 26.1547 138.279 26.3911C137.915 27.5034 137.73 28.3837 137.724 29.0322C137.85 28.8939 138.04 28.6865 138.293 28.4099C139.331 27.2809 140.149 26.49 140.746 26.0373C141.989 25.1341 143.118 24.8863 144.132 25.2938C144.557 25.4577 144.906 25.7142 145.178 26.0632C145.45 26.4122 145.628 26.7089 145.713 26.9531C145.798 27.1973 145.879 27.5254 145.956 27.9374C146.054 28.3985 146.148 28.7151 146.236 28.8874C146.348 29.0608 146.523 29.1771 146.76 29.2362C147.115 29.3488 147.528 29.2598 147.998 28.9694C148.492 28.68 148.877 28.3976 149.154 28.1222C149.457 27.8239 149.86 27.4102 150.365 26.8811C150.518 26.696 150.632 26.5692 150.707 26.5006C150.859 26.3395 151.043 26.2519 151.26 26.238ZM162.639 27.4879C162.634 27.5838 162.617 27.6912 162.588 27.8099C162.559 27.9047 162.507 27.9984 162.431 28.0909C162.379 28.1606 162.304 28.2292 162.205 28.2966C162.107 28.3401 162.009 28.3716 161.912 28.3911C160.44 28.5389 158.593 28.9936 156.371 29.7552C156.503 30.0016 156.599 30.2704 156.658 30.5614C156.806 31.5053 156.201 32.3661 154.844 33.1439C153.931 33.6541 152.905 34.0268 151.764 34.2621C151.207 34.3563 150.713 34.3934 150.282 34.3733C149.706 34.3465 149.268 34.206 148.968 33.9518C148.505 33.5699 148.372 33.0712 148.569 32.4557C148.791 31.8173 149.47 31.1521 150.608 30.4602C151.225 30.1045 151.987 29.7315 152.894 29.3412C152.187 29.0441 151.672 28.7678 151.347 28.5125C150.652 27.9516 150.42 27.2561 150.651 26.4259C150.857 25.6186 151.676 24.8037 153.107 23.9814C153.305 23.8704 153.51 23.8439 153.724 23.9019C153.961 23.961 154.136 24.0892 154.246 24.2866C154.357 24.484 154.384 24.6894 154.326 24.903C154.268 25.1165 154.14 25.2907 153.941 25.4257C152.905 26.0021 152.343 26.4685 152.254 26.8248C152.226 26.9196 152.222 27.0035 152.243 27.0765C152.264 27.1256 152.392 27.2276 152.625 27.3826C152.859 27.5136 153.223 27.6867 153.718 27.902C154.308 28.1216 154.744 28.3101 155.025 28.4673C157.639 27.5317 159.864 26.9625 161.7 26.7595C161.942 26.7227 162.143 26.7801 162.304 26.9318C162.491 27.0606 162.602 27.246 162.639 27.4879ZM154.419 31.4303C154.841 31.1376 155.043 30.9308 155.024 30.8098C155.008 30.6408 154.919 30.4806 154.758 30.3289C154.733 30.3518 154.709 30.3626 154.685 30.3615C153.46 30.8572 152.491 31.3046 151.775 31.7038C151.084 32.1041 150.6 32.442 150.323 32.7174C150.826 32.7408 151.491 32.6396 152.319 32.4138C153.146 32.188 153.846 31.8602 154.419 31.4303Z" fill="#613D2B"/>
<g clip-path="url(#clip0_2_49)">
<path d="M136.316 20.614C136.31 20.6086 136.304 20.6036 136.299 20.5983C136.298 20.5977 136.298 20.5972 136.297 20.5967C133.459 17.9126 128.264 18.7219 124.562 22.2555C124.01 22.7828 123.511 23.3513 123.075 23.949C120.865 23.6363 118.92 24.1616 117.584 25.4368C117.579 25.4418 117.574 25.447 117.568 25.4521C117.567 25.4531 117.566 25.4541 117.565 25.4552C114.888 28.0394 115.737 33.2441 119.407 36.7465C123.122 40.2929 128.582 41.0382 131.255 38.4865C131.258 38.4834 131.261 38.4801 131.264 38.4769C131.266 38.4752 131.268 38.4736 131.27 38.4718C132.595 37.1971 133.14 35.3466 132.813 33.2452C133.44 32.8284 134.035 32.3526 134.588 31.8252C138.309 28.2732 139.141 23.3111 136.316 20.614ZM125.474 23.1255C128.34 20.3893 132.113 19.5234 134.515 20.8362L134.486 20.8457C133.055 21.3106 131.789 22.1133 130.824 23.167C129.906 24.1689 129.26 25.3991 128.946 26.7356C127.587 25.5616 126.035 24.7042 124.444 24.2441C124.758 23.854 125.102 23.4797 125.474 23.1255ZM120.318 35.8765C117.616 33.2972 116.545 29.5445 117.827 27.186C118.818 29.9598 121.303 32.0365 124.315 32.6063C126.909 33.097 129.033 34.8914 129.858 37.2893L130.055 37.8621C127.779 39.6058 123.352 38.7726 120.318 35.8765ZM131.026 36.7496C130.018 34.0088 127.558 31.9656 124.565 31.3994C122.003 30.9146 119.888 29.1472 119.047 26.7869L118.786 26.0556C121.152 24.1982 125.44 25.1063 128.52 28.0467C130.012 29.47 131.172 31.3161 131.517 33.2931C131.748 34.6158 131.574 35.8072 131.026 36.7496ZM132.504 31.9377C132.038 30.4704 131.183 29.0369 130.016 27.7716C130.073 27.576 130.123 27.3782 130.164 27.1798C130.678 24.7061 132.404 22.8218 134.901 22.0103L135.668 21.7612C137.608 23.9966 136.781 27.9912 133.676 30.9553C133.305 31.3095 132.913 31.6381 132.504 31.9377Z" fill="#613D2B"/>
</g>
<defs>
<clipPath id="clip0_2_49">
<rect width="22" height="21" fill="white" transform="translate(116 19)"/>
</clipPath>
</defs>
</svg>
