<svg width="73" height="22" viewBox="0 0 73 22" fill="none" xmlns="http://www.w3.org/2000/svg">
<path d="M16.1525 3.15042C16.5051 3.67842 16.7401 4.42818 16.8576 5.3997C16.9858 6.36066 16.9912 7.4589 16.8736 8.69442C16.7561 9.87714 16.5425 11.0229 16.2327 12.1317C15.9335 13.2405 15.5703 14.1909 15.143 14.9829C14.3311 16.4507 13.4177 17.1847 12.4028 17.1847C11.8687 17.1847 11.4147 16.9312 11.0408 16.4243C10.7523 16.0336 10.5013 15.4845 10.2876 14.777C10.0419 13.9322 9.7962 12.5171 9.5505 10.5319C9.4223 9.60258 9.32615 8.9637 9.26206 8.61522C9.21933 8.34066 9.17125 8.12418 9.11784 7.96578C9.06442 8.02914 9.01635 8.11362 8.97362 8.21922C8.79201 8.55714 8.47686 9.50226 8.02818 11.0546C7.31242 13.5467 6.7035 15.3261 6.2014 16.3927C5.78476 17.2797 5.35211 17.9503 4.90342 18.4043C4.40132 18.9218 3.86718 19.1805 3.30098 19.1805C3.21552 19.1805 3.13006 19.1752 3.04459 19.1647C2.4784 19.0802 2.00835 18.7159 1.63445 18.0717C1.20713 17.3642 0.902667 16.3029 0.721057 14.8879C0.560813 13.6523 0.496715 12.2479 0.528764 10.6744C0.571496 9.20658 0.689008 7.80738 0.881301 6.47682C1.08428 5.14626 1.32464 4.1325 1.6024 3.43554C1.64513 3.32994 1.71991 3.25602 1.82674 3.21378C1.93357 3.16098 2.0404 3.1557 2.14723 3.19794C2.26474 3.24018 2.34486 3.3141 2.38759 3.4197C2.43032 3.5253 2.43032 3.63618 2.38759 3.75234C2.12052 4.40706 1.89618 5.3733 1.71457 6.65106C1.53296 7.92882 1.42079 9.2805 1.37806 10.7061C1.34601 12.3218 1.41545 13.7315 1.58637 14.9354C1.7573 16.1498 2.01903 17.0579 2.37157 17.6599C2.60659 18.0611 2.86832 18.2829 3.15676 18.3251C3.91525 18.4307 4.67374 17.6704 5.43223 16.0442C5.91296 15.0199 6.5112 13.2775 7.22696 10.817C7.68632 9.22242 8.01215 8.22978 8.20445 7.83906C8.53562 7.18434 8.88815 6.88866 9.26206 6.95202C9.47571 6.99426 9.6413 7.12098 9.75881 7.33218C9.87632 7.54338 9.97781 7.84434 10.0633 8.23506C10.1381 8.62578 10.2449 9.3597 10.3838 10.4368C10.6295 12.3693 10.8698 13.7368 11.1049 14.5394C11.4574 15.7538 11.8901 16.361 12.4028 16.361C13.0865 16.361 13.7489 15.7696 14.3899 14.5869C14.9454 13.552 15.378 12.2848 15.6878 10.7853C16.0083 9.28578 16.1472 7.86546 16.1045 6.52434C16.0724 5.18322 15.8534 4.21698 15.4475 3.62562C15.2018 3.25602 14.9026 3.08706 14.5501 3.11874C14.4646 3.1293 14.3899 3.11874 14.3258 3.08706C14.2617 3.05538 14.2029 3.00786 14.1495 2.9445C14.1068 2.88114 14.0854 2.8125 14.0854 2.73858C14.0747 2.62242 14.1068 2.5221 14.1815 2.43762C14.2563 2.34258 14.3525 2.28978 14.47 2.27922C15.1644 2.22642 15.7252 2.51682 16.1525 3.15042ZM23.2033 11.7674C23.2994 11.7146 23.3956 11.704 23.4917 11.7357C23.5879 11.7568 23.6626 11.8149 23.7161 11.9099C23.7695 11.9944 23.7802 12.0842 23.7481 12.1792C23.652 12.5594 23.481 12.892 23.2353 13.1771C23.0003 13.4623 22.7386 13.6735 22.4501 13.8107C22.1724 13.948 21.8893 14.0167 21.6008 14.0167C21.5261 14.0167 21.4513 14.0114 21.3765 14.0008C20.8423 13.9163 20.4791 13.6101 20.2868 13.0821C20.2334 13.1349 20.18 13.1877 20.1266 13.2405C19.5177 13.853 18.9461 14.1592 18.412 14.1592C18.4013 14.1592 18.396 14.1592 18.396 14.1592C18.0862 14.1592 17.8191 14.0378 17.5947 13.7949C17.3704 13.5415 17.2796 13.2511 17.3223 12.9237C17.3757 12.4907 17.568 12.1106 17.8992 11.7832C18.2304 11.4559 18.5883 11.2183 18.9728 11.0704C19.3574 10.9226 19.7313 10.8434 20.0945 10.8328C20.383 10.8328 20.6287 10.9067 20.8317 11.0546C21.0453 11.1919 21.1789 11.3819 21.2323 11.6248C21.2536 11.7304 21.2323 11.8255 21.1682 11.9099C21.1148 11.9944 21.04 12.0472 20.9438 12.0683C20.9225 12.0683 20.9011 12.0683 20.8797 12.0683C20.8904 12.1106 20.8958 12.1581 20.8958 12.2109C20.8637 12.8551 21.0613 13.2141 21.4887 13.288C21.7664 13.3303 22.0602 13.2405 22.37 13.0187C22.7012 12.7653 22.9255 12.4221 23.043 11.9891C23.0644 11.8941 23.1178 11.8202 23.2033 11.7674ZM20.2227 11.9891C20.2975 11.8835 20.399 11.8307 20.5272 11.8307C20.5165 11.8096 20.5112 11.7938 20.5112 11.7832C20.4791 11.6354 20.3563 11.5615 20.1426 11.5615C20.1319 11.5615 20.1213 11.5615 20.1106 11.5615C19.6726 11.572 19.2346 11.7146 18.7966 11.9891C18.3586 12.2531 18.1075 12.5963 18.0434 13.0187C18.0327 13.1243 18.0648 13.2194 18.1396 13.3039C18.225 13.3989 18.3105 13.4411 18.396 13.4306C18.6951 13.4306 19.0209 13.2669 19.3734 12.9395C19.7367 12.6016 20.0198 12.2848 20.2227 11.9891ZM30.5407 11.7515C30.6369 11.7832 30.701 11.8466 30.733 11.9416C30.7757 12.0367 30.7811 12.1317 30.749 12.2267C30.717 12.3218 30.6529 12.3851 30.5567 12.4168C30.4926 12.4485 30.3965 12.4907 30.2683 12.5435C29.0932 13.0504 28.2172 13.5151 27.6403 13.9375C27.6403 14.6133 27.6029 15.3155 27.5281 16.0442C27.4747 16.5405 27.3999 17.0368 27.3038 17.5331C27.2183 18.0295 27.0527 18.6261 26.807 19.3231C26.572 20.0306 26.2942 20.585 25.9738 20.9863C25.5358 21.5354 25.039 21.8099 24.4835 21.8099C24.3232 21.8099 24.1577 21.7835 23.9867 21.7307C23.4846 21.5829 23.1428 21.2291 22.9612 20.6695C22.7796 20.1098 22.7956 19.4445 23.0092 18.6736C23.2443 17.8711 23.6609 17.0843 24.2591 16.3135C25.1779 15.1413 26.0539 14.2279 26.8871 13.5731C26.8551 12.8128 26.7696 12.3059 26.6308 12.0525C26.6094 12.0314 26.5934 12.0103 26.5827 11.9891C26.5186 12.0208 26.4224 12.0895 26.2942 12.1951C26.1767 12.3112 25.9898 12.5224 25.7334 12.8287C25.4877 13.1138 25.2954 13.3303 25.1565 13.4781C25.0176 13.6259 24.8307 13.7738 24.5957 13.9216C24.3713 14.0695 24.1577 14.1434 23.9547 14.1434C23.5808 14.1539 23.303 14.0219 23.1214 13.7474C22.9612 13.4939 22.9238 13.1402 23.0092 12.6861C23.0733 12.3271 23.2069 11.9469 23.4099 11.5456C23.4526 11.4611 23.522 11.4031 23.6182 11.3714C23.7143 11.3397 23.8051 11.345 23.8906 11.3872C23.9867 11.4295 24.0508 11.4981 24.0829 11.5931C24.1149 11.6882 24.1096 11.7832 24.0669 11.8783C23.8959 12.2162 23.7838 12.533 23.7303 12.8287C23.6769 13.1138 23.6823 13.2933 23.7464 13.3672C23.7784 13.4095 23.8425 13.4306 23.9387 13.4306C24.1523 13.42 24.5636 13.061 25.1725 12.3535C25.3969 12.0895 25.5678 11.8941 25.6853 11.7674C25.8135 11.6407 25.9684 11.5245 26.15 11.4189C26.3316 11.3027 26.5026 11.2499 26.6628 11.2605C26.9085 11.2816 27.1115 11.4295 27.2717 11.704C27.432 11.9786 27.5388 12.4379 27.5922 13.0821C28.1157 12.7336 28.9116 12.3323 29.9799 11.8783C30.1187 11.8255 30.2095 11.7832 30.2523 11.7515C30.3484 11.7199 30.4446 11.7199 30.5407 11.7515ZM26.791 15.9808C26.8551 15.4739 26.8925 14.9882 26.9032 14.5235C26.2515 15.0832 25.5678 15.8277 24.8521 16.757C24.382 17.3483 24.0241 17.9872 23.7784 18.6736C23.5327 19.36 23.49 19.9514 23.6502 20.4477C23.7571 20.7645 23.944 20.9599 24.2111 21.0338C24.6384 21.1605 25.0337 20.9968 25.3969 20.5427C25.7281 20.1309 26.0165 19.5184 26.2622 18.7053C26.5079 17.9027 26.6842 16.9946 26.791 15.9808ZM35.4838 12.0208C35.4838 12.0631 35.4785 12.1106 35.4678 12.1634C35.4571 12.2056 35.4358 12.2479 35.4037 12.2901C35.3823 12.3218 35.3503 12.3535 35.3076 12.3851C35.2648 12.4063 35.2221 12.4221 35.1794 12.4327C34.5277 12.5277 33.7158 12.7653 32.7437 13.1455C32.8078 13.2511 32.8558 13.3672 32.8879 13.4939C32.9733 13.9058 32.7223 14.2965 32.1347 14.6661C31.7395 14.909 31.2908 15.0938 30.7887 15.2205C30.543 15.2733 30.324 15.2997 30.1317 15.2997C29.8753 15.2997 29.6777 15.2469 29.5388 15.1413C29.3251 14.9829 29.2557 14.7664 29.3305 14.4919C29.4159 14.2067 29.7044 13.9005 30.1958 13.5731C30.4629 13.4042 30.794 13.2247 31.1893 13.0346C30.8688 12.9184 30.6338 12.8075 30.4842 12.7019C30.1637 12.4696 30.0462 12.1687 30.1317 11.7991C30.2065 11.44 30.5537 11.0651 31.1733 10.6744C31.2587 10.6216 31.3495 10.6058 31.4457 10.6269C31.5525 10.648 31.6326 10.7008 31.6861 10.7853C31.7395 10.8698 31.7555 10.9595 31.7341 11.0546C31.7128 11.1496 31.6593 11.2288 31.5739 11.2922C31.1252 11.5667 30.8848 11.7832 30.8528 11.9416C30.8421 11.9839 30.8421 12.0208 30.8528 12.0525C30.8635 12.0736 30.9222 12.1159 31.0291 12.1792C31.1359 12.232 31.3015 12.3007 31.5258 12.3851C31.7929 12.4696 31.9905 12.5435 32.1187 12.6069C33.2618 12.1423 34.2393 11.8466 35.0512 11.7199C35.158 11.6987 35.2488 11.7199 35.3236 11.7832C35.4091 11.836 35.4625 11.9152 35.4838 12.0208ZM31.9104 13.9216C32.092 13.7843 32.1775 13.6893 32.1668 13.6365C32.1561 13.5626 32.1134 13.4939 32.0386 13.4306C32.0279 13.4411 32.0172 13.4464 32.0065 13.4464C31.4724 13.6893 31.0504 13.9058 30.7406 14.0959C30.4415 14.2859 30.2332 14.4443 30.1157 14.5711C30.34 14.5711 30.6338 14.513 30.997 14.3968C31.3602 14.2807 31.6647 14.1223 31.9104 13.9216Z" fill="#613D2B"/>
<path d="M47.8257 11.7198C47.9432 11.6987 48.05 11.7198 48.1462 11.7832C48.2423 11.8465 48.3011 11.9363 48.3224 12.0525C48.3438 12.1581 48.3224 12.2584 48.2583 12.3534C47.5319 13.42 46.533 14.2489 45.2618 14.8403C44.6528 16.2659 43.4403 17.3958 41.6242 18.2301C39.9897 18.9904 38.211 19.3705 36.2881 19.3705C35.7967 19.3705 35.316 19.3389 34.8459 19.2755C34.4293 19.2333 34.0554 19.1435 33.7242 19.0062C33.393 18.8689 33.1153 18.6947 32.8909 18.4835C32.6666 18.2723 32.501 18.0347 32.3942 17.7707C32.2874 17.475 32.2606 17.1741 32.3141 16.8678C32.3675 16.5721 32.501 16.3134 32.7147 16.0917C33.0352 15.7326 33.6281 15.5003 34.4934 15.3947C34.3331 13.2405 34.3812 11.0493 34.6376 8.8211C34.894 6.58238 35.332 4.61822 35.9516 2.92862C35.9943 2.82302 36.0691 2.7491 36.1759 2.70686C36.2828 2.65406 36.3896 2.64878 36.4964 2.69102C36.6033 2.7227 36.6834 2.79134 36.7368 2.89694C36.7902 3.00254 36.7955 3.10814 36.7528 3.21374C36.0584 5.11454 35.5991 7.34798 35.3747 9.91406C35.5136 9.40718 35.6685 8.90558 35.8394 8.40926C36.0104 7.91294 36.192 7.43774 36.3843 6.98366C36.5765 6.52958 36.7742 6.09662 36.9772 5.68478C37.1908 5.26238 37.4098 4.86638 37.6342 4.49678C37.8692 4.12718 38.1095 3.79454 38.3553 3.49886C39.3595 2.2211 40.3904 1.52414 41.448 1.40798C42.3453 1.31294 43.0237 1.50302 43.4831 1.97822C44.0065 2.51678 44.1828 3.36158 44.0119 4.51262C43.905 5.1779 43.638 5.88014 43.2106 6.61934C42.7833 7.35854 42.2332 8.07134 41.5601 8.75774C41.1862 9.14846 40.8016 9.49166 40.4064 9.78734C42.4361 9.7979 43.9104 10.2678 44.8291 11.1971C45.4915 11.8835 45.7478 12.7283 45.5983 13.7315C46.3995 13.2457 47.0512 12.6333 47.5533 11.8941C47.628 11.799 47.7188 11.7409 47.8257 11.7198ZM41.2557 17.4697C42.4842 16.9101 43.4083 16.1973 44.0279 15.3313C43.3442 15.5425 42.559 15.7062 41.6723 15.8224C40.7856 15.9491 40.0645 16.023 39.509 16.0441C38.9535 16.0653 38.2004 16.0864 37.2496 16.1075C36.4163 16.1181 35.8127 16.1339 35.4388 16.155C35.4602 16.5669 35.4976 16.9576 35.551 17.3272C35.5724 17.4433 35.5456 17.5437 35.4709 17.6281C35.4068 17.7232 35.316 17.7813 35.1984 17.8024C35.1237 17.8129 35.0489 17.8024 34.9741 17.7707C34.91 17.7496 34.8513 17.7073 34.7978 17.644C34.7551 17.5912 34.7284 17.5278 34.7177 17.4539C34.6536 17.0526 34.6002 16.6461 34.5575 16.2342C33.9272 16.3187 33.5159 16.4613 33.3236 16.6619C33.1206 16.8837 33.0779 17.1529 33.1954 17.4697C33.3984 18.0083 33.9806 18.3357 34.9421 18.4518C36.0104 18.568 37.0947 18.5416 38.195 18.3726C39.2954 18.2037 40.3156 17.9027 41.2557 17.4697ZM44.733 13.6998C44.8825 12.9289 44.7063 12.2901 44.2042 11.7832C43.7234 11.2974 42.9916 10.9648 42.0088 10.7853C41.0367 10.5952 39.915 10.5793 38.6437 10.7377C38.5048 10.7694 38.3713 10.7853 38.2431 10.7853C38.1683 10.7853 38.0989 10.7694 38.0348 10.7377C37.9814 10.7061 37.9333 10.6638 37.8905 10.611C37.8478 10.5477 37.8265 10.479 37.8265 10.4051C37.8158 10.2889 37.8425 10.1886 37.9066 10.1041C37.9814 10.0197 38.0722 9.97214 38.179 9.96158C38.2858 9.94046 38.3873 9.92462 38.4835 9.91406C38.6757 9.86126 38.8947 9.76622 39.1405 9.62894C39.3968 9.4811 39.6853 9.28046 40.0058 9.02702C40.3263 8.77358 40.6414 8.48846 40.9512 8.17166C41.261 7.86542 41.5388 7.54862 41.7845 7.22126C42.0409 6.8939 42.2599 6.57182 42.4415 6.25502C42.6338 5.92766 42.7887 5.60558 42.9062 5.28878C43.0344 4.97198 43.1198 4.67102 43.1626 4.3859C43.3015 3.50942 43.2053 2.90222 42.8741 2.5643C42.6605 2.34254 42.3293 2.23166 41.8806 2.23166C41.7738 2.23166 41.6616 2.23694 41.5441 2.2475C40.7215 2.33198 39.8776 2.91806 39.0123 4.00574C38.6384 4.4915 38.2698 5.06174 37.9066 5.71646C37.554 6.37118 37.2282 7.08398 36.9291 7.85486C36.6406 8.62574 36.3843 9.4283 36.1599 10.2625C35.6899 12.0472 35.4442 13.7315 35.4228 15.3155C35.786 15.2944 36.3949 15.2785 37.2496 15.268C38.0615 15.2574 38.6971 15.2416 39.1565 15.2205C39.6265 15.1993 40.2248 15.1518 40.9512 15.0779C41.6883 15.004 42.3507 14.8984 42.9382 14.7611C43.5365 14.6133 44.092 14.4337 44.6048 14.2225C44.6582 14.0536 44.7009 13.8793 44.733 13.6998ZM51.9733 11.6565C52.0801 11.6459 52.171 11.6776 52.2457 11.7515C52.3205 11.8149 52.3579 11.8993 52.3579 12.0049C52.3686 12.1 52.3365 12.1845 52.2618 12.2584C51.1614 13.4622 50.0824 14.08 49.0248 14.1117C48.9928 14.1117 48.9607 14.1117 48.9287 14.1117C48.3198 14.1117 47.8444 13.9216 47.5025 13.5414C47.1713 13.1718 47.0538 12.7072 47.15 12.1475C47.2141 11.7568 47.3743 11.3819 47.6307 11.0229C47.9405 10.5793 48.2824 10.3576 48.6563 10.3576C48.9981 10.3576 49.2438 10.5054 49.3934 10.8011C49.4895 11.0017 49.5162 11.2077 49.4735 11.4189C49.4415 11.6301 49.3667 11.8149 49.2492 11.9733C48.95 12.3851 48.4907 12.6227 47.8711 12.6861C47.9031 12.8339 47.9619 12.9606 48.0473 13.0662C48.261 13.2985 48.5761 13.4094 48.9928 13.3989C49.8474 13.3672 50.7555 12.8233 51.7169 11.7673C51.7917 11.6934 51.8772 11.6565 51.9733 11.6565ZM48.6563 11.0862C48.5601 11.0862 48.4426 11.1707 48.3037 11.3397C48.1649 11.5086 48.0527 11.7093 47.9672 11.9416C48.2877 11.8677 48.5174 11.7357 48.6563 11.5456C48.7097 11.4822 48.7417 11.4083 48.7524 11.3238C48.7631 11.2288 48.7578 11.1601 48.7364 11.1179C48.7257 11.0968 48.699 11.0862 48.6563 11.0862Z" fill="#613D2B"/>
<path d="M67.3291 11.5447C67.4364 11.5391 67.5259 11.5749 67.5971 11.6521C67.6688 11.7188 67.7075 11.8052 67.7128 11.9112C67.7191 12.0066 67.6888 12.0898 67.6211 12.1607C67.5877 12.1908 67.537 12.2414 67.4698 12.3123C67.2891 12.5154 67.1373 12.6723 67.0144 12.7829C66.9023 12.894 66.7514 13.0298 66.5622 13.1902C66.373 13.3401 66.1807 13.4529 65.9849 13.5284C65.7997 13.5939 65.6114 13.6223 65.4191 13.6134C65.323 13.609 65.2277 13.5941 65.1325 13.5686C64.9954 13.5305 64.8747 13.4774 64.771 13.4092C64.678 13.3415 64.601 13.2745 64.54 13.2083C64.4901 13.132 64.4407 13.0399 64.3927 12.932C64.3548 12.8245 64.3263 12.7439 64.3076 12.6902C64.2894 12.6259 64.272 12.5405 64.2556 12.4341C64.2115 12.2312 64.1648 12.0864 64.1153 11.9995C64.0766 11.9131 63.9996 11.8462 63.8843 11.7986C63.7268 11.7385 63.5216 11.7819 63.2687 11.9288C63.0266 12.0763 62.8267 12.2257 62.67 12.3771C62.524 12.5289 62.338 12.7318 62.1119 12.9857C61.932 13.1783 61.8025 13.315 61.7237 13.396C61.6449 13.4769 61.5506 13.5519 61.4406 13.6208C61.3414 13.6797 61.2439 13.7069 61.1477 13.7025C61.137 13.702 61.1317 13.7018 61.1317 13.7018C60.9933 13.6954 60.8833 13.6428 60.8023 13.5439C60.4881 13.1806 60.5059 12.4573 60.8566 11.374C60.8931 11.2805 60.955 11.2146 61.0422 11.1764C61.1299 11.1276 61.2212 11.1212 61.316 11.1572C61.4215 11.1832 61.4936 11.2394 61.5323 11.3258C61.5817 11.4126 61.588 11.508 61.551 11.612C61.389 12.1015 61.3066 12.4888 61.304 12.7741C61.36 12.7133 61.4446 12.622 61.5572 12.5003C62.0193 12.0036 62.3834 11.6556 62.6491 11.4564C63.2024 11.059 63.7049 10.9499 64.1563 11.1292C64.3455 11.2014 64.5008 11.3142 64.6219 11.4678C64.743 11.6213 64.8222 11.7519 64.86 11.8593C64.8979 11.9668 64.9339 12.1111 64.9682 12.2924C65.0118 12.4953 65.0537 12.6346 65.0928 12.7104C65.1427 12.7867 65.2206 12.8379 65.3261 12.8639C65.4841 12.9134 65.6679 12.8743 65.8771 12.7465C66.097 12.6192 66.2684 12.4949 66.3917 12.3737C66.5266 12.2425 66.706 12.0605 66.9307 11.8276C66.9989 11.7462 67.0496 11.6904 67.083 11.6602C67.1506 11.5893 67.2325 11.5508 67.3291 11.5447ZM72.3942 12.0946C72.392 12.1368 72.3844 12.1841 72.3715 12.2363C72.3586 12.278 72.3354 12.3193 72.3016 12.36C72.2784 12.3906 72.2451 12.4208 72.201 12.4505C72.1574 12.4696 72.1137 12.4835 72.0706 12.492C71.4154 12.5571 70.5932 12.7571 69.6041 13.0923C69.6629 13.2007 69.7056 13.3189 69.7319 13.447C69.7978 13.8623 69.5285 14.241 68.9244 14.5833C68.518 14.8078 68.0614 14.9718 67.5535 15.0753C67.3055 15.1167 67.0856 15.1331 66.8938 15.1242C66.6374 15.1124 66.4424 15.0506 66.3089 14.9388C66.1028 14.7707 66.0436 14.5513 66.1313 14.2805C66.2301 13.9996 66.5324 13.7069 67.0389 13.4025C67.3136 13.2459 67.6527 13.0818 68.0565 12.9101C67.7418 12.7794 67.5125 12.6578 67.3679 12.5455C67.0585 12.2987 66.9552 11.9926 67.0581 11.6274C67.1497 11.2721 67.5143 10.9136 68.1513 10.5518C68.2394 10.5029 68.3307 10.4913 68.4259 10.5168C68.5314 10.5428 68.6093 10.5992 68.6583 10.6861C68.7077 10.7729 68.7197 10.8633 68.6939 10.9573C68.6681 11.0512 68.6111 11.1279 68.5225 11.1873C68.0614 11.4409 67.8112 11.6461 67.7716 11.8029C67.7591 11.8446 67.7573 11.8815 67.7667 11.9136C67.776 11.9352 67.833 11.9801 67.9367 12.0483C68.0409 12.1059 68.2029 12.1821 68.4232 12.2768C68.6859 12.3735 68.8799 12.4564 69.005 12.5256C70.1686 12.1139 71.159 11.8635 71.9762 11.7741C72.0839 11.758 72.1734 11.7832 72.2451 11.85C72.3283 11.9066 72.3777 11.9882 72.3942 12.0946ZM68.7353 13.8293C68.9231 13.7005 69.013 13.6095 69.0046 13.5563C68.9974 13.4819 68.9578 13.4114 68.8862 13.3447C68.875 13.3548 68.8644 13.3595 68.8537 13.359C68.3084 13.5771 67.8771 13.774 67.5584 13.9496C67.2508 14.1258 67.0353 14.2744 66.912 14.3956C67.1359 14.4059 67.432 14.3614 67.8005 14.262C68.1686 14.1627 68.4802 14.0185 68.7353 13.8293Z" fill="#613D2B"/>
<path d="M60.6772 9.07011C60.6746 9.06778 60.6723 9.06558 60.6697 9.0632C60.6692 9.06298 60.6692 9.06276 60.6688 9.0625C59.4055 7.88154 57.0931 8.23759 55.4453 9.79242C55.1996 10.0244 54.9775 10.2746 54.7834 10.5376C53.7997 10.4 52.9339 10.6311 52.3392 11.1922C52.337 11.1944 52.3348 11.1967 52.3321 11.1989C52.3317 11.1994 52.3312 11.1998 52.3308 11.2002C51.1392 12.3373 51.5171 14.6274 53.1507 16.1685C54.8043 17.7289 57.2347 18.0568 58.4245 16.934C58.4258 16.9326 58.4272 16.9312 58.4285 16.9298C58.4294 16.9291 58.4303 16.9283 58.4312 16.9276C59.0209 16.3667 59.2635 15.5525 59.1184 14.6278C59.3971 14.4445 59.6619 14.2351 59.9081 14.0031C61.5644 12.4402 61.9347 10.2569 60.6772 9.07011ZM55.8512 10.1752C57.127 8.97129 58.8064 8.59025 59.8756 9.16793L59.8627 9.17206C59.2261 9.37666 58.6622 9.72985 58.2326 10.1935C57.824 10.6343 57.5365 11.1756 57.3967 11.7637C56.7918 11.2471 56.1009 10.8698 55.3928 10.6674C55.5325 10.4958 55.6856 10.3311 55.8512 10.1752ZM53.5562 15.7857C52.3535 14.6508 51.8767 12.9996 52.4474 11.9618C52.8885 13.1823 53.9946 14.0961 55.3353 14.3467C56.49 14.5626 57.4354 15.3522 57.8026 16.4073L57.8908 16.6593C56.8772 17.4265 54.9067 17.0599 53.5562 15.7857ZM58.3225 16.1698C57.8739 14.9639 56.7789 14.0649 55.4466 13.8157C54.3062 13.6024 53.3648 12.8248 52.9904 11.7862L52.8743 11.4645C53.9274 10.6472 55.8361 11.0468 57.2075 12.3405C57.8712 12.9668 58.3875 13.7791 58.5411 14.6489C58.6439 15.2309 58.5665 15.7552 58.3225 16.1698ZM58.9804 14.0526C58.773 13.4069 58.3924 12.7762 57.873 12.2195C57.8983 12.1334 57.9206 12.0464 57.9389 11.9591C58.1676 10.8706 58.9359 10.0416 60.0478 9.68453L60.3888 9.57488C61.2523 10.5585 60.8842 12.3161 59.5021 13.6203C59.337 13.7761 59.1625 13.9207 58.9804 14.0526Z" fill="#613D2B"/>
</svg>
